<svg width="358" height="56" viewBox="0 0 358 56" fill="none" xmlns="http://www.w3.org/2000/svg">
<path d="M0 12C0 5.37258 5.37258 0 12 0H346C352.627 0 358 5.37258 358 12V44C358 50.6274 352.627 56 346 56H12C5.37259 56 0 50.6274 0 44V12Z" fill="#FAE100"/>
<path d="M101.992 22.5781C101.977 26.9688 100.914 30.625 95.6016 33.2812L94.5078 31.7812C96.8828 30.6016 98.2969 29.2812 99.1016 27.7031L94.8984 28.0938L94.6484 26.3906L99.7109 26.0781C99.8516 25.4844 99.9531 24.8438 100.008 24.1719H95.3984V22.5781H101.992ZM105.789 21.2188V26.6719H107.805V28.3125H105.789V35.4062H103.789V21.2188H105.789ZM115.82 22.5781C115.805 26.9688 114.742 30.625 109.43 33.2812L108.336 31.7812C110.711 30.6016 112.125 29.2812 112.93 27.7031L108.727 28.0938L108.477 26.3906L113.539 26.0781C113.68 25.4844 113.781 24.8438 113.836 24.1719H109.227V22.5781H115.82ZM119.617 21.2188V26.6719H121.633V28.3125H119.617V35.4062H117.617V21.2188H119.617ZM128.711 21.9531C131.773 21.9531 134.055 23.5 134.07 25.8438C134.055 27.9844 132.25 29.4297 129.695 29.7188V32.1406H135.242V33.7812H122.227V32.1406H127.711V29.7031C125.164 29.4297 123.367 27.9766 123.367 25.8438C123.367 23.5 125.648 21.9531 128.711 21.9531ZM128.711 23.5469C126.727 23.5469 125.336 24.4219 125.336 25.8438C125.336 27.3438 126.727 28.1875 128.711 28.1875C130.711 28.1875 132.086 27.3438 132.102 25.8438C132.086 24.4219 130.711 23.5469 128.711 23.5469ZM149.07 32.2188V33.8594H136.055V32.2188H141.539V30.0781H137.555V25.2969H145.602V23.7344H137.539V22.1406H147.57V26.8594H139.555V28.4531H147.898V30.0781H143.523V32.2188H149.07ZM158.227 34.1562C155.742 34.1562 153.961 32.7812 153.914 30.8125H156.289C156.336 31.6562 157.148 32.2188 158.242 32.2188C159.367 32.2188 160.18 31.5781 160.164 30.6719C160.18 29.75 159.352 29.0938 158.023 29.0938H156.977V27.3594H158.023C159.133 27.3594 159.914 26.75 159.914 25.8594C159.914 25 159.258 24.4062 158.258 24.4062C157.258 24.4062 156.43 24.9688 156.398 25.8281H154.148C154.18 23.875 155.945 22.5312 158.258 22.5312C160.617 22.5312 162.195 23.9219 162.18 25.7188C162.195 26.9844 161.305 27.8906 160.039 28.1094V28.2031C161.695 28.4062 162.617 29.4219 162.602 30.8281C162.617 32.7656 160.773 34.1562 158.227 34.1562ZM176.805 32.1875V33.8125H163.789V32.1875H169.289V29.4062H171.273V32.1875H176.805ZM175.664 23.1719V24.7656H171.32C171.484 26.3438 173.094 27.9453 176.336 28.3438L175.617 29.8906C173.07 29.5703 171.234 28.5156 170.289 27.0469C169.328 28.5156 167.508 29.5703 164.961 29.8906L164.227 28.3438C167.469 27.9453 169.078 26.3438 169.258 24.7656H164.914V23.1719H169.289V21.3906H171.273V23.1719H175.664ZM184.867 22.3906V29.2188H178.039V22.3906H184.867ZM180.008 23.9844V27.6562H182.898V23.9844H180.008ZM188.898 21.2188V25.3125H190.82V26.9531H188.898V31.5938H186.898V21.2188H188.898ZM189.414 33.5938V35.1875H179.68V30.5781H181.664V33.5938H189.414ZM203.773 21.2188V35.4375H201.867V21.2188H203.773ZM200.805 21.4219V34.7812H198.93V28.0625H197.789C197.602 30.8594 196.414 32.5469 194.664 32.5469C192.789 32.5469 191.57 30.5781 191.57 27.375C191.57 24.1875 192.789 22.2344 194.664 22.2344C196.375 22.2344 197.547 23.8281 197.773 26.4844H198.93V21.4219H200.805ZM194.664 24.1094C193.867 24.1094 193.398 25.2031 193.414 27.375C193.398 29.5625 193.867 30.6406 194.664 30.625C195.477 30.6406 195.961 29.5625 195.961 27.375C195.961 25.2031 195.477 24.1094 194.664 24.1094ZM214.492 24.4375C214.492 27.0469 215.68 29.6719 218.086 30.6875L216.914 32.2812C215.289 31.5469 214.164 30.1328 213.523 28.375C212.875 30.2891 211.711 31.8359 209.977 32.625L208.773 30.9688C211.258 29.9219 212.461 27.2031 212.477 24.4375V22.3125H214.492V24.4375ZM220.867 21.2188V35.4688H218.852V21.2188H220.867ZM230.867 22.0469V23.6406H228.039C228.055 25.3047 229.039 27.0078 231.352 27.75L230.336 29.2969C228.758 28.7891 227.672 27.7734 227.055 26.5C226.422 27.8906 225.289 28.9922 223.633 29.5312L222.57 28C224.922 27.2422 225.992 25.4219 226.023 23.6406H223.117V22.0469H230.867ZM234.07 21.2188V24.6719H235.992V26.3281H234.07V29.7969H232.07V21.2188H234.07ZM234.07 30.4062V35.4375H232.07V31.9844H224.492V30.4062H234.07ZM247.836 21.2188V26.7812H249.93V28.4219H247.836V35.4375H245.867V21.2188H247.836ZM244.898 23.3438V24.9375H236.539V23.3438H239.758V21.4375H241.758V23.3438H244.898ZM240.758 25.7344C242.836 25.7344 244.383 27.1406 244.383 29.125C244.383 31.1094 242.836 32.5156 240.758 32.5156C238.664 32.5156 237.117 31.1094 237.117 29.125C237.117 27.1406 238.664 25.7344 240.758 25.7344ZM240.758 27.3438C239.758 27.3594 239.023 28.0312 239.023 29.125C239.023 30.2344 239.758 30.8906 240.758 30.875C241.758 30.8906 242.477 30.2344 242.477 29.125C242.477 28.0312 241.758 27.3594 240.758 27.3438ZM262.398 21.2188V35.4375H260.383V21.2188H262.398ZM258.133 22.7031C258.133 27.0156 256.617 30.5938 251.539 33L250.492 31.4062C254.164 29.6719 255.781 27.4219 256.102 24.2656H251.258V22.7031H258.133Z" fill="#212121"/>
<path d="M40 38.125C40 39.1606 39.1606 40 38.125 40H17.875C16.8394 40 16 39.1606 16 38.125V17.875C16 16.8394 16.8394 16 17.875 16H38.125C39.1606 16 40 16.8394 40 17.875V38.125Z" fill="#FFE812" fill-opacity="0.01"/>
<path d="M28 19.375C22.6152 19.375 18.25 22.8168 18.25 27.0625C18.25 29.8074 20.0749 32.2159 22.8201 33.576C22.6708 34.091 21.8604 36.8895 21.8282 37.1093C21.8282 37.1093 21.8088 37.2745 21.9157 37.3375C22.0227 37.4005 22.1485 37.3516 22.1485 37.3516C22.4553 37.3087 25.7057 35.0255 26.2683 34.6291C26.8303 34.7087 27.409 34.75 28 34.75C33.3848 34.75 37.75 31.3083 37.75 27.0625C37.75 22.8168 33.3848 19.375 28 19.375Z" fill="#17191A"/>
</svg>
