<svg width="35" height="35" viewBox="0 0 35 35" fill="none" xmlns="http://www.w3.org/2000/svg">
<path d="M25.6476 13.3773L24.7916 12.5214L24.7931 9.28093C25.7906 7.9276 26.25 5.87133 26.25 4.37508C26.25 3.57008 25.5981 2.91675 24.7916 2.91675H10.2083C9.40185 2.91675 8.74998 3.57008 8.74998 4.37508C8.74998 5.87133 9.20935 7.92906 10.2083 9.28093V12.5214L9.35231 13.3773C7.08314 15.6465 5.83331 18.6638 5.83331 21.8751C5.83331 22.263 5.98648 22.6335 6.26065 22.9062C6.53481 23.1789 6.90519 23.3334 7.29165 23.3334H16.0416V30.6251C16.0416 31.4315 16.6935 32.0834 17.5 32.0834C18.3064 32.0834 18.9583 31.4315 18.9583 30.6251V23.3334H27.7083C28.5148 23.3334 29.1666 22.6815 29.1666 21.8751C29.1666 18.6638 27.9168 15.6465 25.6476 13.3773ZM8.86516 20.4153C9.16557 18.5384 10.045 16.8089 11.4144 15.4395L12.6976 14.1562C12.9718 13.882 13.125 13.5115 13.125 13.1251L13.1236 8.74866C13.1236 8.36074 12.9704 7.99028 12.6962 7.71757C12.3477 7.36903 12.0312 6.63841 11.8446 5.83341H23.1554C22.9673 6.63841 22.6523 7.36899 22.3023 7.71899C22.0281 7.99316 21.875 8.36216 21.875 8.75008V13.1251C21.875 13.513 22.0281 13.8835 22.3023 14.1562L23.5856 15.4395C24.9549 16.8089 25.8344 18.5399 26.1348 20.4167L8.86516 20.4153Z" fill="white"/>
</svg>
