<svg width="35" height="35" viewBox="0 0 35 35" fill="none" xmlns="http://www.w3.org/2000/svg">
<path d="M31.3264 20.5158L28.1181 10.9126C28.0211 10.6224 27.8352 10.37 27.5869 10.1913C27.3385 10.0125 27.0402 9.91643 26.7341 9.9166C25.2228 9.93635 23.7447 9.47293 22.5152 8.59389C21.4674 7.26294 20.7377 5.71015 20.3816 4.0541C20.3243 3.79946 20.1996 3.56488 20.0207 3.37484C19.8417 3.18481 19.6151 3.04628 19.3643 2.97373C19.1136 2.90117 18.848 2.89725 18.5952 2.96236C18.3424 3.02747 18.1118 3.15923 17.9273 3.34389L9.17727 12.0939C9.03988 12.2313 8.93132 12.3947 8.85797 12.5746C8.78461 12.7545 8.74795 12.9472 8.75012 13.1415C8.7523 13.3358 8.79327 13.5277 8.87062 13.7059C8.94798 13.8841 9.06017 14.0451 9.2006 14.1793L27.4837 31.6793C27.7594 31.9434 28.1276 32.0889 28.5093 32.0846C28.8911 32.0802 29.2559 31.9263 29.5254 31.656L31.9375 29.2381C32.9616 28.2127 33.5368 26.8227 33.5368 25.3735C33.5368 23.9243 32.9616 22.5343 31.9375 21.5089C31.6599 21.2294 31.4508 20.8895 31.3264 20.5158ZM29.8798 27.176L28.4696 28.5862L12.2937 13.1016L18.2933 7.10202C18.7768 8.41677 19.513 9.62413 20.4604 10.656C21.9204 11.907 23.7478 12.6492 25.6666 12.7706L28.5585 21.4374C28.8288 22.2413 29.2809 22.9719 29.8798 23.5724C30.3567 24.0508 30.6244 24.6987 30.6244 25.3742C30.6244 26.0497 30.3567 26.6976 29.8798 27.176ZM1.45831 24.7916C1.45831 24.4048 1.61196 24.0339 1.88545 23.7604C2.15894 23.4869 2.52987 23.3333 2.91665 23.3333H14.5833C14.9701 23.3333 15.341 23.4869 15.6145 23.7604C15.888 24.0339 16.0416 24.4048 16.0416 24.7916C16.0416 25.1784 15.888 25.5493 15.6145 25.8228C15.341 26.0963 14.9701 26.2499 14.5833 26.2499H2.91665C2.52987 26.2499 2.15894 26.0963 1.88545 25.8228C1.61196 25.5493 1.45831 25.1784 1.45831 24.7916ZM1.45831 18.9583C1.45831 18.5715 1.61196 18.2006 1.88545 17.9271C2.15894 17.6536 2.52987 17.4999 2.91665 17.4999H8.74998C9.13675 17.4999 9.50769 17.6536 9.78118 17.9271C10.0547 18.2006 10.2083 18.5715 10.2083 18.9583C10.2083 19.345 10.0547 19.716 9.78118 19.9895C9.50769 20.263 9.13675 20.4166 8.74998 20.4166H2.91665C2.52987 20.4166 2.15894 20.263 1.88545 19.9895C1.61196 19.716 1.45831 19.345 1.45831 18.9583ZM1.45831 30.6249C1.45831 30.2382 1.61196 29.8672 1.88545 29.5937C2.15894 29.3202 2.52987 29.1666 2.91665 29.1666H20.4166C20.8034 29.1666 21.1744 29.3202 21.4478 29.5937C21.7213 29.8672 21.875 30.2382 21.875 30.6249C21.875 31.0117 21.7213 31.3826 21.4478 31.6561C21.1744 31.9296 20.8034 32.0833 20.4166 32.0833H2.91665C2.52987 32.0833 2.15894 31.9296 1.88545 31.6561C1.61196 31.3826 1.45831 31.0117 1.45831 30.6249Z" fill="white"/>
</svg>
