<svg width="35" height="35" viewBox="0 0 35 35" fill="none" xmlns="http://www.w3.org/2000/svg">
<path d="M24.4635 23.8699C24.708 24.1697 24.8233 24.5542 24.7842 24.939C24.7451 25.3238 24.5547 25.6774 24.255 25.9218C23.9552 26.1662 23.5707 26.2816 23.1859 26.2425C22.8011 26.2034 22.4476 26.013 22.2031 25.7133C21.6613 24.9748 20.9531 24.3743 20.1361 23.9604C19.319 23.5465 18.4159 23.3308 17.5 23.3308C16.5841 23.3308 15.681 23.5465 14.8639 23.9604C14.0468 24.3743 13.3387 24.9748 12.7969 25.7133C12.6758 25.8617 12.5267 25.9848 12.3581 26.0756C12.1895 26.1664 12.0046 26.2231 11.8141 26.2425C11.6236 26.2618 11.4311 26.2435 11.2477 26.1885C11.0642 26.1334 10.8934 26.0428 10.745 25.9218C10.5966 25.8008 10.4734 25.6517 10.3826 25.4831C10.2918 25.3144 10.2351 25.1296 10.2158 24.939C10.1964 24.7485 10.2147 24.556 10.2698 24.3726C10.3248 24.1891 10.4154 24.0183 10.5364 23.8699C11.3528 22.797 12.406 21.9272 13.6139 21.3285C14.8219 20.7297 16.1518 20.4182 17.5 20.4182C18.8482 20.4182 20.1781 20.7297 21.386 21.3285C22.594 21.9272 23.6472 22.797 24.4635 23.8699ZM33.5417 17.4999C33.5417 20.6727 32.6008 23.7742 30.8381 26.4122C29.0755 29.0502 26.5701 31.1063 23.6389 32.3205C20.7076 33.5346 17.4822 33.8523 14.3704 33.2333C11.2586 32.6144 8.40028 31.0866 6.15682 28.8431C3.91335 26.5996 2.38553 23.7413 1.76656 20.6295C1.14759 17.5177 1.46526 14.2923 2.67942 11.361C3.89358 8.42981 5.94968 5.92444 8.58771 4.16176C11.2258 2.39908 14.3272 1.45825 17.5 1.45825C21.753 1.46327 25.8303 3.15498 28.8376 6.16229C31.8449 9.1696 33.5366 13.2469 33.5417 17.4999ZM30.625 17.4999C30.625 14.904 29.8552 12.3665 28.413 10.2081C26.9708 8.04966 24.921 6.3674 22.5227 5.374C20.1244 4.3806 17.4854 4.12068 14.9394 4.62711C12.3934 5.13354 10.0548 6.38358 8.21921 8.21914C6.38365 10.0547 5.13361 12.3934 4.62718 14.9394C4.12075 17.4854 4.38067 20.1244 5.37407 22.5226C6.36747 24.9209 8.04973 26.9708 10.2081 28.413C12.3665 29.8552 14.9041 30.6249 17.5 30.6249C20.9798 30.6211 24.3159 29.237 26.7765 26.7764C29.2371 24.3159 30.6211 20.9797 30.625 17.4999ZM24.7917 13.1249C24.7917 13.5117 24.638 13.8826 24.3645 14.1561C24.091 14.4296 23.7201 14.5833 23.3333 14.5833C22.9465 14.5833 22.5756 14.4296 22.3021 14.1561C22.0286 13.8826 21.875 13.5117 21.875 13.1249C21.875 12.7381 21.7213 12.3672 21.4479 12.0937C21.1744 11.8202 20.8034 11.6666 20.4167 11.6666C20.0299 11.6666 19.6589 11.8202 19.3855 12.0937C19.112 12.3672 18.9583 12.7381 18.9583 13.1249C18.9583 14.2852 19.4193 15.398 20.2397 16.2185C21.0602 17.039 22.173 17.4999 23.3333 17.4999C24.4936 17.4999 25.6064 17.039 26.4269 16.2185C27.2474 15.398 27.7083 14.2852 27.7083 13.1249C27.7083 12.7381 27.5547 12.3672 27.2812 12.0937C27.0077 11.8202 26.6368 11.6666 26.25 11.6666C25.8632 11.6666 25.4923 11.8202 25.2188 12.0937C24.9453 12.3672 24.7917 12.7381 24.7917 13.1249ZM16.0417 13.1249C16.0417 12.7381 15.888 12.3672 15.6145 12.0937C15.341 11.8202 14.9701 11.6666 14.5833 11.6666C14.1965 11.6666 13.8256 11.8202 13.5521 12.0937C13.2786 12.3672 13.125 12.7381 13.125 13.1249C13.125 13.5117 12.9713 13.8826 12.6979 14.1561C12.4244 14.4296 12.0534 14.5833 11.6667 14.5833C11.2799 14.5833 10.9089 14.4296 10.6355 14.1561C10.362 13.8826 10.2083 13.5117 10.2083 13.1249C10.2083 12.7381 10.0547 12.3672 9.78118 12.0937C9.50769 11.8202 9.13676 11.6666 8.74999 11.6666C8.36321 11.6666 7.99228 11.8202 7.71879 12.0937C7.4453 12.3672 7.29165 12.7381 7.29165 13.1249C7.29165 14.2852 7.75259 15.398 8.57306 16.2185C9.39353 17.039 10.5063 17.4999 11.6667 17.4999C12.827 17.4999 13.9398 17.039 14.7602 16.2185C15.5807 15.398 16.0417 14.2852 16.0417 13.1249Z" fill="white"/>
</svg>
